<svg width="60" height="59" viewBox="0 0 60 59" fill="none" xmlns="http://www.w3.org/2000/svg">
<g clip-path="url(#clip0_2014_328)">
<path d="M50.0391 0H9.96094C4.45966 0 0 4.49058 0 10.03V48.8756C0 54.415 4.45966 58.9056 9.96094 58.9056H50.0391C55.5403 58.9056 60 54.415 60 48.8756V10.03C60 4.49058 55.5403 0 50.0391 0Z" fill="#001E36"/>
<path d="M13.5103 41.3083V15.4101C13.5103 15.2211 13.5908 15.1266 13.7519 15.1264L14.0067 15.1257L14.4421 15.121L15.0473 15.109L17.0746 15.0658L19.2485 15.0252C20.013 15.0118 20.771 15.005 21.5224 15.0049C23.5614 15.0049 25.2788 15.2616 26.6744 15.775C27.9335 16.2035 29.0817 16.9096 30.0353 17.8418C30.8439 18.6498 31.4687 19.6247 31.8667 20.6993C32.2431 21.7451 32.4339 22.8494 32.4304 23.9618C32.4304 26.1237 31.9339 27.907 30.941 29.3117C29.9699 30.6821 28.6154 31.7301 27.0503 32.3221L26.916 32.3717C25.2817 32.9855 23.4719 33.2073 21.487 33.2213L21.1785 33.2222L20.7208 33.2198L20.4899 33.2165L20.2326 33.2104L20.0774 33.2043L19.9832 33.1993L19.7514 33.1908L19.4681 33.1849L19.0415 33.1818L18.9466 33.1816V41.2677C18.9536 41.3172 18.9491 41.3678 18.9334 41.4153C18.9177 41.4628 18.8912 41.506 18.856 41.5414C18.8209 41.5768 18.778 41.6034 18.7308 41.6193C18.6837 41.6351 18.6335 41.6396 18.5842 41.6325H13.7922C13.6041 41.6327 13.5101 41.5246 13.5103 41.3083ZM18.9468 19.9899V28.4368C19.2953 28.464 19.6171 28.4776 19.9124 28.4774H21.2409C22.1568 28.4742 23.0673 28.3369 23.9439 28.0698L24.1188 28.0149C24.9163 27.7765 25.629 27.3122 26.1717 26.6772C26.676 26.0782 26.9373 25.2529 26.9554 24.2011L26.9566 24.0833C26.9777 23.2993 26.7752 22.5257 26.3728 21.8543C25.95 21.2048 25.3386 20.7024 24.622 20.4154C23.6864 20.0491 22.6869 19.8768 21.6836 19.909L21.1731 19.9104L20.8511 19.9132L20.5438 19.9172L20.1103 19.9257L19.7938 19.9347L19.6295 19.9408L19.4099 19.9512L19.2229 19.9628L19.1163 19.9713L19.0242 19.9802L18.9836 19.985L18.9468 19.9899ZM47.9929 26.9009C47.2907 26.5377 46.546 26.2648 45.7762 26.0886L45.5981 26.0499C44.7512 25.8543 43.8866 25.7465 43.0178 25.7282L42.8008 25.7257C42.2915 25.7117 41.783 25.7732 41.2914 25.9081C40.9786 25.9784 40.7005 26.1578 40.5063 26.4145C40.375 26.6201 40.3052 26.8593 40.3052 27.1037C40.3125 27.3406 40.3974 27.5685 40.5466 27.752C40.7602 28.0035 41.0171 28.2143 41.3048 28.3743L41.392 28.4208C41.9659 28.7319 42.5572 29.0093 43.1629 29.2515C44.5136 29.7071 45.8043 30.3263 47.0067 31.0956C47.8258 31.6161 48.5036 32.3334 48.9792 33.183C49.3788 33.9874 49.5791 34.8773 49.5628 35.7767C49.5866 36.9644 49.2496 38.1311 48.5967 39.1205C47.8976 40.1248 46.9265 40.9055 45.7992 41.3696C44.6185 41.892 43.1688 42.162 41.4499 42.1796L41.2713 42.1805C40.2057 42.1912 39.1416 42.0973 38.0941 41.9002L37.87 41.8563C36.9881 41.6934 36.1296 41.4211 35.3142 41.0456C35.2322 41.0031 35.1628 40.9394 35.1133 40.861C35.0638 40.7826 35.0359 40.6924 35.0324 40.5996V36.1821C35.0276 36.1392 35.0344 36.0958 35.0522 36.0566C35.0699 36.0173 35.0979 35.9836 35.1332 35.9591C35.1677 35.9393 35.2075 35.9307 35.247 35.9343C35.2866 35.9379 35.3241 35.9537 35.3545 35.9794C36.3175 36.5511 37.3631 36.9681 38.4536 37.2155C39.4149 37.4583 40.401 37.5875 41.392 37.6007C42.3309 37.6007 43.0218 37.4791 43.4648 37.2358C43.6647 37.1435 43.8338 36.9949 43.9517 36.8079C44.0696 36.6209 44.1311 36.4036 44.129 36.1821C44.129 35.8313 43.9278 35.4935 43.5253 35.169C43.3565 35.033 43.1145 34.8851 42.7994 34.7253L42.6487 34.6507L42.4879 34.5745L42.4035 34.5358L42.2268 34.4569L42.1347 34.4168L41.9425 34.3356L41.8424 34.2943L41.6348 34.2106L41.527 34.1681L41.3036 34.0815L41.0699 33.9934C39.8059 33.5509 38.6075 32.9373 37.5077 32.1696C36.7209 31.6187 36.0731 30.89 35.616 30.0419C35.2204 29.2432 35.0203 28.3607 35.0324 27.4683C35.0299 26.3959 35.3225 25.3438 35.8776 24.4286C36.5104 23.4209 37.4188 22.6185 38.4939 22.1186C39.6744 21.5245 41.1502 21.2273 42.9213 21.2268C43.9586 21.2184 44.995 21.293 46.0206 21.4498C46.7633 21.5448 47.4894 21.7425 48.1783 22.0374C48.2892 22.0695 48.3785 22.1519 48.4197 22.2605C48.4471 22.3593 48.4605 22.4615 48.46 22.5644V26.6579C48.4659 26.7546 48.4197 26.8474 48.3393 26.9009C48.2855 26.9279 48.2262 26.9419 48.1661 26.9419C48.106 26.9419 48.0467 26.9279 47.9929 26.9009Z" fill="#31A8FF"/>
</g>
<defs>
<clipPath id="clip0_2014_328">
<rect width="60" height="59" fill="white"/>
</clipPath>
</defs>
</svg>
