<svg width="60" height="60" viewBox="0 0 60 60" fill="none" xmlns="http://www.w3.org/2000/svg">
<path d="M54.394 9.43129L43.5827 4.22629C42.9723 3.93135 42.2852 3.8339 41.6168 3.94748C40.9485 4.06106 40.3321 4.38002 39.8534 4.86004L4.46274 37.125C4.03335 37.5147 3.77631 38.0589 3.74818 38.638C3.72005 39.2172 3.92313 39.7838 4.31274 40.2132C4.35899 40.2632 4.40711 40.3113 4.45711 40.3575L7.34649 42.9825C7.72404 43.3262 8.21003 43.5267 8.72005 43.5493C9.23006 43.5719 9.73188 43.4152 10.1384 43.1063L52.7665 10.7813C53.0885 10.537 53.4723 10.3874 53.8747 10.3493C54.2771 10.3113 54.6821 10.3863 55.0441 10.566C55.4062 10.7457 55.7109 11.0228 55.924 11.3663C56.1371 11.7097 56.2501 12.1059 56.2502 12.51V12.3844C56.2498 11.7674 56.0753 11.1631 55.747 10.6408C55.4187 10.1184 54.9497 9.69923 54.394 9.43129Z" fill="#0065A9"/>
<path d="M54.394 50.5688L43.5827 55.7757C42.972 56.0692 42.2852 56.1659 41.6172 56.0524C40.9491 55.9388 40.3328 55.6207 39.8534 55.1419L4.46274 22.875C4.03335 22.4854 3.77631 21.9412 3.74818 21.362C3.72005 20.7829 3.92313 20.2163 4.31274 19.7869C4.35899 19.7369 4.40711 19.6888 4.45711 19.6425L7.34649 17.0175C7.72443 16.6725 8.21153 16.471 8.7228 16.4484C9.23407 16.4258 9.73705 16.5834 10.144 16.8938L52.7665 49.2188C53.0885 49.4631 53.4723 49.6127 53.8747 49.6507C54.2771 49.6888 54.6821 49.6137 55.0441 49.4341C55.4062 49.2544 55.7109 48.9772 55.924 48.6338C56.1371 48.2903 56.2501 47.8942 56.2502 47.49V47.625C56.248 48.2404 56.0728 48.8427 55.7445 49.3633C55.4163 49.8838 54.9483 50.3015 54.394 50.5688Z" fill="#007ACC"/>
<path d="M43.5826 55.7757C42.9719 56.0693 42.2851 56.1659 41.617 56.0524C40.949 55.9389 40.3327 55.6208 39.8532 55.142C40.1225 55.4077 40.4642 55.5881 40.8355 55.6605C41.2068 55.7328 41.5912 55.694 41.9406 55.5489C42.29 55.4037 42.5887 55.1587 42.7994 54.8445C43.0101 54.5303 43.1234 54.1609 43.1251 53.7826V6.21758C43.1254 5.8375 43.0129 5.46587 42.8018 5.14978C42.5908 4.83369 42.2906 4.58736 41.9394 4.44198C41.5883 4.29661 41.2018 4.25874 40.8291 4.33317C40.4564 4.4076 40.1141 4.59098 39.8457 4.86008C40.3242 4.37976 40.9405 4.06044 41.6089 3.94653C42.2772 3.83261 42.9645 3.92976 43.5751 4.22446L54.3845 9.42196C54.942 9.68857 55.4128 10.1072 55.7429 10.6296C56.0729 11.1521 56.2488 11.7571 56.2501 12.3751V47.6251C56.2498 48.2426 56.0753 48.8474 55.7466 49.3702C55.4179 49.8929 54.9483 50.3123 54.392 50.5801L43.5826 55.7757Z" fill="#1F9CF0"/>
</svg>
