<svg width="40" height="40" viewBox="0 0 40 40" fill="none" xmlns="http://www.w3.org/2000/svg">
<path d="M24 11V5L16 11H24Z" fill="#8FBFFA"/>
<path d="M5.01758 5.01709H24.2925L15.7259 11.4421" stroke="#2859C5" stroke-width="1.5" stroke-linecap="round" stroke-linejoin="round"/>
<path d="M5.01758 5.01709L5.01758 28.5754H15.7259" stroke="#2859C5" stroke-width="1.5" stroke-linecap="round" stroke-linejoin="round"/>
<path d="M15.7256 11.4419H35.0006V35.0002H15.7256V11.4419Z" fill="white" stroke="#2859C5" stroke-width="1.5" stroke-linecap="round" stroke-linejoin="round"/>
<path d="M24.292 5.01709V11.4421" stroke="#2859C5" stroke-width="1.5" stroke-linecap="round" stroke-linejoin="round"/>
<path d="M31 19H21V26L24.6 23.1176L27.4 25.1765L29 23.9412L31 25.5882V19Z" fill="#8FBFFA"/>
<path d="M27.5671 21.384H27.5728M20.7334 20.245C20.7334 19.7919 20.9134 19.3574 21.2338 19.037C21.5542 18.7166 21.9887 18.5366 22.4418 18.5366H29.2755C29.7286 18.5366 30.1632 18.7166 30.4836 19.037C30.804 19.3574 30.9839 19.7919 30.9839 20.245V27.0787C30.9839 27.5318 30.804 27.9664 30.4836 28.2868C30.1632 28.6072 29.7286 28.7872 29.2755 28.7872H22.4418C21.9887 28.7872 21.5542 28.6072 21.2338 28.2868C20.9134 27.9664 20.7334 27.5318 20.7334 27.0787V20.245Z" stroke="#2859C5" stroke-width="1.5" stroke-linecap="round" stroke-linejoin="round"/>
<path d="M20.7334 25.8584L23.5495 23.2756C24.0721 22.8144 24.7165 22.8144 25.2391 23.2756L28.0552 25.8584" stroke="#2859C5" stroke-width="1.5" stroke-linecap="round" stroke-linejoin="round"/>
<path d="M27.3223 24.6611L27.8453 24.0625C28.3306 23.528 28.9289 23.528 29.4142 24.0625L30.9832 25.8582" stroke="#2859C5" stroke-width="1.5" stroke-linecap="round" stroke-linejoin="round"/>
<line x1="9.75" y1="13.25" x2="15.25" y2="13.25" stroke="#2859C5" stroke-width="1.5" stroke-linecap="round"/>
<line x1="9.75" y1="17.25" x2="15.25" y2="17.25" stroke="#2859C5" stroke-width="1.5" stroke-linecap="round"/>
<line x1="9.75" y1="21.25" x2="15.25" y2="21.25" stroke="#2859C5" stroke-width="1.5" stroke-linecap="round"/>
<path d="M30 5C30 5.26522 30.1054 5.51957 30.2929 5.70711C30.4804 5.89464 30.7348 6 31 6C31.2652 6 31.5196 5.89464 31.7071 5.70711C31.8946 5.51957 32 5.26522 32 5C32 4.73478 31.8946 4.48043 31.7071 4.29289C31.5196 4.10536 31.2652 4 31 4C30.7348 4 30.4804 4.10536 30.2929 4.29289C30.1054 4.48043 30 4.73478 30 5Z" fill="#8FBFFA"/>
<path d="M1 29C1 29.2652 1.10536 29.5196 1.29289 29.7071C1.48043 29.8946 1.73478 30 2 30C2.26522 30 2.51957 29.8946 2.70711 29.7071C2.89464 29.5196 3 29.2652 3 29C3 28.7348 2.89464 28.4804 2.70711 28.2929C2.51957 28.1054 2.26522 28 2 28C1.73478 28 1.48043 28.1054 1.29289 28.2929C1.10536 28.4804 1 28.7348 1 29Z" fill="#8FBFFA"/>
<path d="M11 38C11 38.2652 11.1054 38.5196 11.2929 38.7071C11.4804 38.8946 11.7348 39 12 39C12.2652 39 12.5196 38.8946 12.7071 38.7071C12.8946 38.5196 13 38.2652 13 38C13 37.7348 12.8946 37.4804 12.7071 37.2929C12.5196 37.1054 12.2652 37 12 37C11.7348 37 11.4804 37.1054 11.2929 37.2929C11.1054 37.4804 11 37.7348 11 38Z" fill="#8FBFFA"/>
</svg>
