<svg width="40" height="40" viewBox="0 0 40 40" fill="none" xmlns="http://www.w3.org/2000/svg">
<path d="M13.5175 25.9802L16.0394 26.3859C16.8113 26.5148 17.6087 26.3683 18.2621 25.9775C18.9155 25.5868 19.3733 24.9826 19.5383 24.2934C19.7033 23.6043 19.5624 22.8845 19.1455 22.2872C18.7287 21.6899 18.0688 21.2621 17.3061 21.0948L14.6609 20.4965C12.8364 20.0839 10.9517 19.927 9.0738 20.0313L7.49444 20.1194C7.49444 20.1194 6.02074 23.449 6 25.7082C5.98147 27.7273 7.10645 30.759 7.10645 30.759L14.7454 33.1873C18.3932 34.3457 22.3874 34.2633 25.9721 32.9557L33.3394 30.2692C34 30.0293 34.5353 29.5742 34.8379 28.9949C35.1406 28.4157 35.1884 27.7552 34.9716 27.1457C34.7549 26.5362 34.2896 26.0227 33.6691 25.7082C33.0486 25.3936 31.6932 25.8518 31 26L21.7863 27.9632L13.5175 25.9802Z" fill="white"/>
<path d="M18.6066 26.5365L28.1041 24.7094C28.8425 24.5686 29.6195 24.6664 30.2704 24.9823C30.9213 25.2981 31.3948 25.807 31.5906 26.4011M7.54147 21.082L9.16946 21C9.16946 21 11.9211 21.8133 13.75 21.9898C15.2674 22.1362 17.3387 22.3669 17.3387 22.3669C17.3387 22.3669 19.0152 22.4923 19.4429 22.9883C19.8706 23.4842 20.0637 24.0885 19.9867 24.6904C19.8032 26.1493 18.1281 27.1697 16.3496 26.9141L13.75 26.5365L22.272 28.2064L31.7694 26.3793C32.5078 26.2384 33.9309 25.9996 34.5818 26.3154C35.2326 26.6312 35.7062 27.1401 35.902 27.7342C36.2784 28.8842 35.542 30.08 34.1846 30.5282L26.5857 33.0285C22.8913 34.2449 18.7751 34.3216 15.0157 33.244L7.13917 30.984C7.13917 30.984 6 29.9498 6 26.3154C6 22.6809 7.54147 21.082 7.54147 21.082Z" stroke="#2859C5" stroke-width="1.5" stroke-linecap="round" stroke-linejoin="round"/>
<path d="M24.5 20C29.3 20 32 17.3 32 12.5C32 7.7 29.3 5 24.5 5C19.7 5 17 7.7 17 12.5C17 17.3 19.7 20 24.5 20Z" fill="#8FBFFA"/>
<path d="M24.5 20C29.3 20 32 17.3 32 12.5C32 7.7 29.3 5 24.5 5C19.7 5 17 7.7 17 12.5C17 17.3 19.7 20 24.5 20Z" stroke="#2859C5" stroke-width="1.5" stroke-linecap="round" stroke-linejoin="round"/>
<path d="M23.9436 8.56099C23.9886 8.45057 24.0655 8.35607 24.1645 8.28955C24.2634 8.22303 24.38 8.1875 24.4992 8.1875C24.6184 8.1875 24.735 8.22303 24.8339 8.28955C24.9329 8.35607 25.0098 8.45057 25.0548 8.56099L25.8972 10.6166L28.1796 10.817C28.2983 10.8274 28.4111 10.873 28.5038 10.9478C28.5965 11.0226 28.6648 11.1233 28.7 11.237C28.7353 11.3508 28.7359 11.4725 28.7018 11.5866C28.6677 11.7007 28.6003 11.8021 28.5084 11.8778L27.1152 13.0226C27.0298 13.0925 26.9654 13.1846 26.929 13.2888C26.8926 13.3929 26.8856 13.5051 26.9088 13.613L27.3648 15.7262C27.3901 15.843 27.38 15.9647 27.3357 16.0756C27.2915 16.1866 27.2151 16.2819 27.1163 16.3492C27.0176 16.4165 26.901 16.4528 26.7815 16.4534C26.662 16.454 26.545 16.4189 26.4456 16.3526L24.4992 15.0506L22.5528 16.3526C22.4534 16.4193 22.3363 16.4547 22.2166 16.4543C22.0968 16.4539 21.98 16.4177 21.881 16.3503C21.782 16.283 21.7055 16.1875 21.6612 16.0763C21.6169 15.9651 21.6068 15.8431 21.6324 15.7262L22.0884 13.613C22.1119 13.5053 22.1053 13.3933 22.0693 13.2891C22.0333 13.185 21.9693 13.0928 21.8844 13.0226L20.49 11.8778C20.3981 11.8021 20.3308 11.7007 20.2966 11.5866C20.2625 11.4725 20.2631 11.3508 20.2984 11.237C20.3336 11.1233 20.402 11.0226 20.4946 10.9478C20.5873 10.873 20.7002 10.8274 20.8188 10.817L23.1012 10.6166L23.9436 8.56099Z" fill="white"/>
<path d="M23.9436 8.56099C23.9886 8.45057 24.0655 8.35607 24.1645 8.28955C24.2634 8.22303 24.38 8.1875 24.4992 8.1875C24.6184 8.1875 24.735 8.22303 24.8339 8.28955C24.9329 8.35607 25.0098 8.45057 25.0548 8.56099L25.8972 10.6166L28.1796 10.817C28.2983 10.8274 28.4111 10.873 28.5038 10.9478C28.5965 11.0226 28.6648 11.1233 28.7 11.237C28.7353 11.3508 28.7359 11.4725 28.7018 11.5866C28.6677 11.7007 28.6003 11.8021 28.5084 11.8778L27.1152 13.0226C27.0298 13.0925 26.9654 13.1846 26.929 13.2888C26.8926 13.3929 26.8856 13.5051 26.9088 13.613L27.3648 15.7262C27.3901 15.843 27.38 15.9647 27.3357 16.0756C27.2915 16.1866 27.2151 16.2819 27.1163 16.3492C27.0176 16.4165 26.901 16.4528 26.7815 16.4534C26.662 16.454 26.545 16.4189 26.4456 16.3526L24.4992 15.0506L22.5528 16.3526C22.4534 16.4193 22.3363 16.4547 22.2166 16.4543C22.0968 16.4539 21.98 16.4177 21.881 16.3503C21.782 16.283 21.7055 16.1875 21.6612 16.0763C21.6169 15.9651 21.6068 15.8431 21.6324 15.7262L22.0884 13.613C22.1119 13.5053 22.1053 13.3933 22.0693 13.2891C22.0333 13.185 21.9693 13.0928 21.8844 13.0226L20.49 11.8778C20.3981 11.8021 20.3308 11.7007 20.2966 11.5866C20.2625 11.4725 20.2631 11.3508 20.2984 11.237C20.3336 11.1233 20.402 11.0226 20.4946 10.9478C20.5873 10.873 20.7002 10.8274 20.8188 10.817L23.1012 10.6166L23.9436 8.56099Z" stroke="#2859C5" stroke-width="1.5" stroke-linecap="round" stroke-linejoin="round"/>
<path d="M6 7C6 7.26522 6.10536 7.51957 6.29289 7.70711C6.48043 7.89464 6.73478 8 7 8C7.26522 8 7.51957 7.89464 7.70711 7.70711C7.89464 7.51957 8 7.26522 8 7C8 6.73478 7.89464 6.48043 7.70711 6.29289C7.51957 6.10536 7.26522 6 7 6C6.73478 6 6.48043 6.10536 6.29289 6.29289C6.10536 6.48043 6 6.73478 6 7Z" fill="#8FBFFA"/>
<path d="M11 15C11 15.2652 11.1054 15.5196 11.2929 15.7071C11.4804 15.8946 11.7348 16 12 16C12.2652 16 12.5196 15.8946 12.7071 15.7071C12.8946 15.5196 13 15.2652 13 15C13 14.7348 12.8946 14.4804 12.7071 14.2929C12.5196 14.1054 12.2652 14 12 14C11.7348 14 11.4804 14.1054 11.2929 14.2929C11.1054 14.4804 11 14.7348 11 15Z" fill="#8FBFFA"/>
<path d="M7 37C7 37.2652 7.10536 37.5196 7.29289 37.7071C7.48043 37.8946 7.73478 38 8 38C8.26522 38 8.51957 37.8946 8.70711 37.7071C8.89464 37.5196 9 37.2652 9 37C9 36.7348 8.89464 36.4804 8.70711 36.2929C8.51957 36.1054 8.26522 36 8 36C7.73478 36 7.48043 36.1054 7.29289 36.2929C7.10536 36.4804 7 36.7348 7 37Z" fill="#8FBFFA"/>
</svg>
