<svg width="40" height="40" viewBox="0 0 40 40" fill="none" xmlns="http://www.w3.org/2000/svg">
<path d="M20.4611 21.2641C20.4611 21.2641 20.4634 14.129 20.4634 5.52832M20.4634 5.52832C27.4075 5.52869 30.0078 11.7779 30.0078 11.7779M20.4634 5.52832C13.5217 5.52836 10.0078 11.778 10.0078 11.778M23.6617 29.88C23.6617 29.88 22.3781 30.528 20.4534 30.528C18.5281 30.528 17.2452 29.88 17.2452 29.88C15.569 28.0095 14.378 26.4338 13.6453 25.3935C13.0685 24.5738 13.0339 23.5033 13.511 22.6204C16.6866 16.7495 19.1705 13.6847 19.1705 13.6847C19.1705 13.6847 19.4987 13.0653 20.4611 13.0653C21.4241 13.0653 21.737 13.6847 21.737 13.6847C21.737 13.6847 24.2203 16.7495 27.3959 22.6211C27.8737 23.5033 27.8386 24.5742 27.2615 25.3935C26.5288 26.4338 25.3375 28.0099 23.6617 29.88ZM19.1059 24.5755C18.7487 24.2148 18.548 23.7257 18.548 23.2156C18.548 22.7056 18.7487 22.2164 19.1059 21.8558C19.4631 21.4951 19.9476 21.2925 20.4528 21.2925C20.9579 21.2925 21.4424 21.4951 21.7996 21.8558C22.1568 22.2164 22.3575 22.7056 22.3575 23.2156C22.3575 23.7257 22.1568 24.2148 21.7996 24.5755C21.4424 24.9362 20.9579 25.1388 20.4528 25.1388C19.9476 25.1388 19.4631 24.9362 19.1059 24.5755ZM23.6671 29.8606C24.9348 31.3731 25.8719 33.2202 26.3009 34.1435C26.4638 34.495 26.3817 34.905 26.0753 35.1396C25.2197 35.7941 23.263 36.9999 20.4527 36.9999C17.6432 36.9999 15.6862 35.7944 14.8309 35.1396C14.5245 34.905 14.4417 34.495 14.6053 34.1435C15.034 33.2198 15.971 31.3735 17.2388 29.8603C17.2388 29.8603 18.5244 30.5096 20.4531 30.5096C22.3818 30.5096 23.6671 29.8606 23.6671 29.8606ZM17.2531 29.8727C17.2531 29.8727 18.5363 30.521 20.461 30.521C22.3867 30.5207 23.6696 29.8727 23.6696 29.8727C25.3458 28.0022 26.5371 26.4268 27.2698 25.3865C27.8466 24.5668 27.8816 23.4959 27.4042 22.6133C24.229 16.7421 21.745 13.6773 21.745 13.6773C21.745 13.6773 21.4318 13.0583 20.4694 13.0583C19.5064 13.0583 19.1785 13.6774 19.1785 13.6774C19.1785 13.6774 16.6949 16.7425 13.5193 22.6134C13.0422 23.4963 13.0765 24.5665 13.6536 25.3865C14.386 26.4265 15.5773 28.0026 17.2531 29.8727Z" stroke="#2859C5" stroke-width="1.5" stroke-linecap="round" stroke-linejoin="round"/>
<path d="M29 14C29 14.5304 29.2107 15.0391 29.5858 15.4142C29.9609 15.7893 30.4696 16 31 16C31.5304 16 32.0391 15.7893 32.4142 15.4142C32.7893 15.0391 33 14.5304 33 14C33 13.4696 32.7893 12.9609 32.4142 12.5858C32.0391 12.2107 31.5304 12 31 12C30.4696 12 29.9609 12.2107 29.5858 12.5858C29.2107 12.9609 29 13.4696 29 14Z" stroke="#2859C5" stroke-width="1.5" stroke-linecap="round" stroke-linejoin="round"/>
<path d="M7 14C7 14.5304 7.21071 15.0391 7.58579 15.4142C7.96086 15.7893 8.46957 16 9 16C9.53043 16 10.0391 15.7893 10.4142 15.4142C10.7893 15.0391 11 14.5304 11 14C11 13.4696 10.7893 12.9609 10.4142 12.5858C10.0391 12.2107 9.53043 12 9 12C8.46957 12 7.96086 12.2107 7.58579 12.5858C7.21071 12.9609 7 13.4696 7 14Z" stroke="#2859C5" stroke-width="1.5" stroke-linecap="round" stroke-linejoin="round"/>
<rect x="18" y="3" width="5" height="5" fill="white" stroke="#2859C5" stroke-width="1.5"/>
<path d="M32 33C32 33.2652 32.1054 33.5196 32.2929 33.7071C32.4804 33.8946 32.7348 34 33 34C33.2652 34 33.5196 33.8946 33.7071 33.7071C33.8946 33.5196 34 33.2652 34 33C34 32.7348 33.8946 32.4804 33.7071 32.2929C33.5196 32.1054 33.2652 32 33 32C32.7348 32 32.4804 32.1054 32.2929 32.2929C32.1054 32.4804 32 32.7348 32 33Z" fill="#8FBFFA"/>
<path d="M4 22C4 22.2652 4.10536 22.5196 4.29289 22.7071C4.48043 22.8946 4.73478 23 5 23C5.26522 23 5.51957 22.8946 5.70711 22.7071C5.89464 22.5196 6 22.2652 6 22C6 21.7348 5.89464 21.4804 5.70711 21.2929C5.51957 21.1054 5.26522 21 5 21C4.73478 21 4.48043 21.1054 4.29289 21.2929C4.10536 21.4804 4 21.7348 4 22Z" fill="#8FBFFA"/>
<path d="M33 5C33 5.26522 33.1054 5.51957 33.2929 5.70711C33.4804 5.89464 33.7348 6 34 6C34.2652 6 34.5196 5.89464 34.7071 5.70711C34.8946 5.51957 35 5.26522 35 5C35 4.73478 34.8946 4.48043 34.7071 4.29289C34.5196 4.10536 34.2652 4 34 4C33.7348 4 33.4804 4.10536 33.2929 4.29289C33.1054 4.48043 33 4.73478 33 5Z" fill="#8FBFFA"/>
</svg>
