<svg width="1442" height="872" viewBox="0 0 1442 872" fill="none" xmlns="http://www.w3.org/2000/svg">
<g clip-path="url(#clip0_2550_271563)">
<rect x="1" y="1" width="1440" height="870" rx="12" fill="#ECF0F8"/>
<rect width="1440" height="91" transform="translate(1 1)" fill="#D3E3FD"/>
<circle cx="27.5" cy="23" r="6.25" fill="#FF6058" stroke="#E13D35" stroke-width="0.5"/>
<circle cx="48.5" cy="23" r="6.25" fill="#FFC130" stroke="#E09D0E" stroke-width="0.5"/>
<circle cx="69.5" cy="23" r="6.25" fill="#27CA40" stroke="#06A81D" stroke-width="0.5"/>
<g clip-path="url(#clip1_2550_271563)">
<path d="M91 18.0566C91 11.4292 96.3726 6.05664 103 6.05664H364.5C371.127 6.05664 376.5 11.4292 376.5 18.0566V46.4996H91V18.0566Z" fill="#D3E3FD"/>
<path d="M123.076 23.4992C123.076 22.8764 123.015 22.2336 122.915 21.6309H114.216V25.1868H119.198C118.997 26.3319 118.334 27.3364 117.35 27.9792L120.323 30.2896C122.071 28.6623 123.076 26.2917 123.076 23.4992Z" fill="#4280EF"/>
<path d="M114.218 32.4996C116.709 32.4996 118.798 31.676 120.325 30.2697L117.352 27.9794C116.528 28.5419 115.463 28.8634 114.218 28.8634C111.807 28.8634 109.778 27.2361 109.034 25.0664L105.98 27.4169C107.548 30.5308 110.722 32.4996 114.218 32.4996Z" fill="#34A353"/>
<path d="M109.033 25.0461C108.651 23.9009 108.651 22.6554 109.033 21.5102L105.979 19.1396C104.674 21.7513 104.674 24.8251 105.979 27.4166L109.033 25.0461Z" fill="#F6B704"/>
<path d="M114.218 17.7133C115.523 17.6932 116.809 18.1955 117.753 19.0995L120.385 16.4477C118.718 14.8807 116.508 14.0369 114.218 14.057C110.722 14.057 107.548 16.0258 105.98 19.1397L109.034 21.5103C109.778 19.3205 111.807 17.7133 114.218 17.7133Z" fill="#E54335"/>
<path d="M139.94 21.3081C139.858 21.0496 139.747 20.8181 139.608 20.6135C139.472 20.4062 139.308 20.23 139.118 20.0851C138.927 19.9374 138.71 19.8252 138.466 19.7485C138.224 19.6718 137.959 19.6334 137.669 19.6334C137.177 19.6334 136.734 19.7599 136.339 20.0127C135.945 20.2655 135.632 20.6363 135.402 21.1249C135.175 21.6107 135.061 22.2059 135.061 22.9104C135.061 23.6178 135.176 24.2158 135.406 24.7045C135.636 25.1931 135.952 25.5638 136.352 25.8167C136.753 26.0695 137.209 26.1959 137.72 26.1959C138.195 26.1959 138.608 26.0993 138.96 25.9062C139.315 25.713 139.589 25.4403 139.783 25.088C139.979 24.7329 140.077 24.3153 140.077 23.8351L140.418 23.8991H137.92V22.8124H141.351V23.8053C141.351 24.5383 141.195 25.1746 140.882 25.7144C140.572 26.2513 140.143 26.6661 139.595 26.9587C139.05 27.2513 138.425 27.3976 137.72 27.3976C136.93 27.3976 136.237 27.2158 135.641 26.8522C135.047 26.4885 134.584 25.9729 134.251 25.3053C133.919 24.6349 133.753 23.8394 133.753 22.9189C133.753 22.2229 133.849 21.5979 134.043 21.0439C134.236 20.49 134.507 20.0198 134.856 19.6334C135.209 19.2442 135.622 18.9474 136.097 18.7428C136.574 18.5354 137.095 18.4317 137.66 18.4317C138.132 18.4317 138.571 18.5013 138.977 18.6405C139.386 18.7797 139.75 18.9772 140.068 19.2329C140.389 19.4885 140.655 19.7925 140.865 20.1448C141.075 20.4942 141.217 20.882 141.291 21.3081H139.94ZM145.677 27.4104C145.063 27.4104 144.528 27.2698 144.071 26.9885C143.613 26.7073 143.258 26.3138 143.005 25.8081C142.752 25.3025 142.626 24.7116 142.626 24.0354C142.626 23.3564 142.752 22.7627 143.005 22.2542C143.258 21.7456 143.613 21.3508 144.071 21.0695C144.528 20.7883 145.063 20.6476 145.677 20.6476C146.291 20.6476 146.826 20.7883 147.284 21.0695C147.741 21.3508 148.096 21.7456 148.349 22.2542C148.602 22.7627 148.728 23.3564 148.728 24.0354C148.728 24.7116 148.602 25.3025 148.349 25.8081C148.096 26.3138 147.741 26.7073 147.284 26.9885C146.826 27.2698 146.291 27.4104 145.677 27.4104ZM145.681 26.3408C146.079 26.3408 146.409 26.2357 146.67 26.0255C146.931 25.8153 147.125 25.5354 147.25 25.186C147.377 24.8366 147.441 24.4516 147.441 24.0312C147.441 23.6135 147.377 23.23 147.25 22.8806C147.125 22.5283 146.931 22.2456 146.67 22.0326C146.409 21.8195 146.079 21.713 145.681 21.713C145.281 21.713 144.948 21.8195 144.684 22.0326C144.423 22.2456 144.228 22.5283 144.1 22.8806C143.975 23.23 143.913 23.6135 143.913 24.0312C143.913 24.4516 143.975 24.8366 144.1 25.186C144.228 25.5354 144.423 25.8153 144.684 26.0255C144.948 26.2357 145.281 26.3408 145.681 26.3408ZM152.908 27.4104C152.294 27.4104 151.758 27.2698 151.301 26.9885C150.844 26.7073 150.489 26.3138 150.236 25.8081C149.983 25.3025 149.856 24.7116 149.856 24.0354C149.856 23.3564 149.983 22.7627 150.236 22.2542C150.489 21.7456 150.844 21.3508 151.301 21.0695C151.758 20.7883 152.294 20.6476 152.908 20.6476C153.521 20.6476 154.057 20.7883 154.514 21.0695C154.972 21.3508 155.327 21.7456 155.579 22.2542C155.832 22.7627 155.959 23.3564 155.959 24.0354C155.959 24.7116 155.832 25.3025 155.579 25.8081C155.327 26.3138 154.972 26.7073 154.514 26.9885C154.057 27.2698 153.521 27.4104 152.908 27.4104ZM152.912 26.3408C153.31 26.3408 153.639 26.2357 153.9 26.0255C154.162 25.8153 154.355 25.5354 154.48 25.186C154.608 24.8366 154.672 24.4516 154.672 24.0312C154.672 23.6135 154.608 23.23 154.48 22.8806C154.355 22.5283 154.162 22.2456 153.9 22.0326C153.639 21.8195 153.31 21.713 152.912 21.713C152.511 21.713 152.179 21.8195 151.915 22.0326C151.653 22.2456 151.459 22.5283 151.331 22.8806C151.206 23.23 151.143 23.6135 151.143 24.0312C151.143 24.4516 151.206 24.8366 151.331 25.186C151.459 25.5354 151.653 25.8153 151.915 26.0255C152.179 26.2357 152.511 26.3408 152.912 26.3408ZM160.125 29.8692C159.605 29.8692 159.158 29.801 158.783 29.6647C158.411 29.5283 158.107 29.3479 157.871 29.1235C157.635 28.8991 157.459 28.6533 157.343 28.3863L158.438 27.9346C158.514 28.0596 158.617 28.1917 158.745 28.3309C158.875 28.4729 159.051 28.5937 159.273 28.6931C159.497 28.7925 159.786 28.8422 160.138 28.8422C160.621 28.8422 161.02 28.7243 161.335 28.4885C161.651 28.2556 161.809 27.8834 161.809 27.3721V26.0851H161.728C161.651 26.2243 161.54 26.3792 161.395 26.5496C161.253 26.7201 161.057 26.8678 160.807 26.9928C160.557 27.1178 160.232 27.1803 159.831 27.1803C159.314 27.1803 158.848 27.0596 158.434 26.8181C158.022 26.5738 157.695 26.2144 157.453 25.74C157.215 25.2627 157.095 24.676 157.095 23.98C157.095 23.284 157.213 22.6874 157.449 22.1903C157.688 21.6931 158.014 21.3124 158.429 21.0482C158.844 20.7812 159.314 20.6476 159.84 20.6476C160.246 20.6476 160.574 20.7158 160.824 20.8522C161.074 20.9857 161.269 21.142 161.408 21.3209C161.55 21.4999 161.659 21.6576 161.736 21.7939H161.83V20.7329H163.078V27.4232C163.078 27.9857 162.948 28.4474 162.686 28.8081C162.425 29.1689 162.071 29.436 161.625 29.6093C161.182 29.7826 160.682 29.8692 160.125 29.8692ZM160.112 26.1235C160.479 26.1235 160.789 26.0383 161.041 25.8678C161.297 25.6945 161.49 25.4474 161.621 25.1263C161.755 24.8025 161.821 24.4147 161.821 23.963C161.821 23.5226 161.756 23.1349 161.625 22.7996C161.495 22.4644 161.303 22.203 161.05 22.0155C160.797 21.8252 160.485 21.73 160.112 21.73C159.729 21.73 159.409 21.8295 159.154 22.0283C158.898 22.2243 158.705 22.4914 158.574 22.8295C158.446 23.1675 158.382 23.5454 158.382 23.963C158.382 24.392 158.448 24.7684 158.578 25.0922C158.709 25.4161 158.902 25.6689 159.158 25.8508C159.416 26.0326 159.735 26.1235 160.112 26.1235ZM166.061 18.551V27.2783H164.787V18.551H166.061ZM170.597 27.4104C169.952 27.4104 169.396 27.2726 168.93 26.9971C168.467 26.7187 168.109 26.328 167.856 25.8252C167.606 25.3195 167.481 24.7272 167.481 24.0482C167.481 23.3778 167.606 22.7868 167.856 22.2755C168.109 21.7641 168.462 21.365 168.913 21.078C169.368 20.7911 169.899 20.6476 170.507 20.6476C170.876 20.6476 171.234 20.7087 171.581 20.8309C171.927 20.953 172.239 21.1448 172.514 21.4062C172.79 21.6675 173.007 22.007 173.166 22.4246C173.325 22.8394 173.405 23.3437 173.405 23.9374V24.3891H168.202V23.4346H172.156C172.156 23.0993 172.088 22.8025 171.952 22.5439C171.815 22.2826 171.623 22.0766 171.376 21.926C171.132 21.7755 170.845 21.7002 170.516 21.7002C170.158 21.7002 169.845 21.7883 169.578 21.9644C169.314 22.1377 169.109 22.365 168.964 22.6462C168.822 22.9246 168.751 23.2272 168.751 23.5539V24.2996C168.751 24.7371 168.828 25.1093 168.981 25.4161C169.138 25.7229 169.355 25.9573 169.633 26.1192C169.912 26.2783 170.237 26.3579 170.609 26.3579C170.851 26.3579 171.071 26.3238 171.27 26.2556C171.469 26.1846 171.641 26.0795 171.785 25.9403C171.93 25.801 172.041 25.6292 172.118 25.4246L173.324 25.642C173.227 25.9971 173.054 26.3081 172.804 26.5752C172.557 26.8394 172.246 27.0454 171.871 27.1931C171.498 27.338 171.074 27.4104 170.597 27.4104Z" fill="#1F1F1F"/>
<rect x="322.5" y="3.05664" width="58" height="42" fill="url(#paint0_linear_2550_271563)"/>
<path fill-rule="evenodd" clip-rule="evenodd" d="M363.963 19.2669C363.692 18.9958 363.254 18.9958 362.983 19.2669L359.583 22.6597L356.184 19.26C355.912 18.9889 355.474 18.9889 355.203 19.26C354.932 19.5311 354.932 19.9691 355.203 20.2403L358.603 23.64L355.203 27.0397C354.932 27.3108 354.932 27.7488 355.203 28.02C355.474 28.2911 355.912 28.2911 356.184 28.02L359.583 24.6203L362.983 28.02C363.254 28.2911 363.692 28.2911 363.963 28.02C364.234 27.7488 364.234 27.3108 363.963 27.0397L360.564 23.64L363.963 20.2403C364.228 19.9761 364.228 19.5311 363.963 19.2669Z" fill="#1F1F1F"/>
</g>
<g clip-path="url(#clip2_2550_271563)">
<path d="M375.5 20.5C375.5 13.8726 380.873 8.5 387.5 8.5H649C655.627 8.5 661 13.8726 661 20.5V46.5H375.5V20.5Z" fill="white"/>
<path d="M390.88 20.4547C390.866 20.43 390.845 20.4095 390.821 20.3952C390.796 20.3808 390.768 20.3732 390.739 20.373C390.711 20.3729 390.683 20.3802 390.658 20.3942C390.633 20.4082 390.612 20.4285 390.597 20.4531C389.877 21.6797 389.498 23.0768 389.5 24.4994C389.5 28.2568 392.09 31.4097 395.584 32.2686C395.618 32.2765 395.654 32.2733 395.687 32.2594C395.72 32.2455 395.747 32.2216 395.766 32.1912L397.842 28.7048L398.009 28.416C398.081 28.2914 397.972 28.1356 397.829 28.1482C397.106 28.2133 396.38 28.0624 395.744 27.7146C395.107 27.3668 394.588 26.8377 394.252 26.1945L392.593 23.3263L390.88 20.4547Z" fill="#3D4043"/>
<path d="M395.451 25.7492L395.426 25.7003L395.363 25.5934C395.175 25.225 395.085 24.8142 395.103 24.4009C395.12 23.9876 395.244 23.5858 395.462 23.2345C395.681 22.8831 395.986 22.5942 396.349 22.3958C396.712 22.1973 397.12 22.096 397.534 22.1018C397.948 22.1075 398.353 22.2201 398.71 22.4286C399.067 22.637 399.365 22.9343 399.573 23.2916C399.782 23.6488 399.895 24.0539 399.901 24.4676C399.906 24.8812 399.805 25.2893 399.607 25.6523L399.576 25.7003L399.517 25.8014C399.297 26.1435 398.993 26.4241 398.635 26.6166C398.277 26.8092 397.875 26.9074 397.468 26.9021C397.062 26.8968 396.663 26.7881 396.31 26.5863C395.956 26.3845 395.66 26.0961 395.449 25.7483" fill="#3D4043"/>
<path d="M400.595 26.4613L398.929 29.348L397.202 32.2491C397.187 32.2736 397.178 32.3016 397.178 32.3304C397.177 32.3592 397.184 32.3877 397.197 32.413C397.211 32.4383 397.231 32.4596 397.256 32.4745C397.281 32.4895 397.309 32.4977 397.338 32.4983L397.5 32.5C399.622 32.5 401.657 31.6571 403.157 30.1569C404.658 28.6566 405.5 26.6217 405.5 24.5C405.501 23.7274 405.39 22.9587 405.17 22.2179C405.16 22.1838 405.138 22.154 405.11 22.1328C405.081 22.1116 405.046 22.1001 405.01 22.1H400.637C400.492 22.1 400.412 22.2726 400.496 22.3905C400.917 22.9867 401.163 23.7143 401.163 24.5C401.165 25.1946 400.967 25.875 400.595 26.4613ZM397.5 20.8368H404.338C404.465 20.8368 404.545 20.7038 404.483 20.5926C403.788 19.3512 402.775 18.3175 401.547 17.5981C400.32 16.8787 398.923 16.4997 397.5 16.5C396.402 16.4985 395.315 16.7237 394.308 17.1616C393.301 17.5995 392.396 18.2407 391.648 19.0448C391.624 19.0715 391.609 19.1051 391.605 19.1409C391.602 19.1767 391.61 19.2126 391.628 19.2436L393.685 22.6912L393.854 22.9817C393.925 23.1063 394.115 23.0903 394.175 22.959C394.469 22.3249 394.939 21.7883 395.528 21.4122C396.117 21.0362 396.801 20.8366 397.5 20.8368Z" fill="#3D4043"/>
<path d="M424.04 24.1364C424.04 25.0682 423.869 25.8693 423.528 26.5398C423.188 27.2074 422.72 27.7216 422.126 28.0824C421.536 28.4403 420.864 28.6193 420.111 28.6193C419.355 28.6193 418.68 28.4403 418.087 28.0824C417.496 27.7216 417.03 27.206 416.689 26.5355C416.348 25.8651 416.178 25.0653 416.178 24.1364C416.178 23.2045 416.348 22.4048 416.689 21.7372C417.03 21.0668 417.496 20.5526 418.087 20.1946C418.68 19.8338 419.355 19.6534 420.111 19.6534C420.864 19.6534 421.536 19.8338 422.126 20.1946C422.72 20.5526 423.188 21.0668 423.528 21.7372C423.869 22.4048 424.04 23.2045 424.04 24.1364ZM422.736 24.1364C422.736 23.4261 422.621 22.8281 422.391 22.3423C422.163 21.8537 421.851 21.4844 421.453 21.2344C421.058 20.9815 420.611 20.8551 420.111 20.8551C419.608 20.8551 419.159 20.9815 418.764 21.2344C418.369 21.4844 418.057 21.8537 417.827 22.3423C417.599 22.8281 417.486 23.4261 417.486 24.1364C417.486 24.8466 417.599 25.446 417.827 25.9347C418.057 26.4205 418.369 26.7898 418.764 27.0426C419.159 27.2926 419.608 27.4176 420.111 27.4176C420.611 27.4176 421.058 27.2926 421.453 27.0426C421.851 26.7898 422.163 26.4205 422.391 25.9347C422.621 25.446 422.736 24.8466 422.736 24.1364ZM425.681 28.5V19.7727H426.998V23.5653H431.349V19.7727H432.67V28.5H431.349V24.6946H426.998V28.5H425.681ZM434.588 28.5V19.7727H435.904V23.5653H440.255V19.7727H441.576V28.5H440.255V24.6946H435.904V28.5H434.588ZM442.821 19.7727H444.316L446.596 23.7401H446.69L448.97 19.7727H450.466L447.299 25.0739V28.5H445.987V25.0739L442.821 19.7727ZM451.709 28.5V19.7727H457.18V20.9062H453.026V23.5653H456.895V24.6946H453.026V27.3665H457.232V28.5H451.709ZM462.331 19.7727H463.644V25.9602C463.644 26.5199 463.533 26.9986 463.311 27.3963C463.093 27.794 462.784 28.098 462.387 28.3082C461.989 28.5156 461.523 28.6193 460.989 28.6193C460.498 28.6193 460.056 28.5298 459.664 28.3509C459.275 28.1719 458.966 27.9119 458.739 27.571C458.515 27.2273 458.402 26.8097 458.402 26.3182H459.711C459.711 26.5597 459.766 26.7685 459.877 26.9446C459.99 27.1207 460.145 27.2585 460.341 27.358C460.54 27.4545 460.767 27.5028 461.023 27.5028C461.301 27.5028 461.537 27.4446 461.73 27.3281C461.926 27.2088 462.076 27.0341 462.178 26.804C462.28 26.5739 462.331 26.2926 462.331 25.9602V19.7727ZM466.877 19.7727V28.5H465.56V19.7727H466.877ZM475.839 19.7727V28.5H474.629L470.192 22.0994H470.112V28.5H468.795V19.7727H470.013L474.454 26.1818H474.535V19.7727H475.839Z" fill="#1F1F1F"/>
<rect x="607" y="4.5" width="58" height="42" fill="url(#paint1_linear_2550_271563)"/>
<path fill-rule="evenodd" clip-rule="evenodd" d="M648.925 22.2533L645.729 25.4496L648.925 28.6461C649.277 28.9977 649.277 29.5731 648.925 29.9247C648.573 30.2763 647.998 30.2763 647.647 29.9246L644.45 26.7281L641.254 29.9244C640.902 30.276 640.327 30.276 639.975 29.9244C639.624 29.5727 639.623 28.9974 639.975 28.6458L643.171 25.4495L639.975 22.253C639.623 21.9014 639.623 21.326 639.975 20.9744C640.326 20.6228 640.902 20.6228 641.253 20.9745L644.45 24.171L647.646 20.9747C647.998 20.6231 648.573 20.6231 648.925 20.9747C649.276 21.3264 649.276 21.9017 648.925 22.2533Z" fill="#1F1F1F"/>
</g>
<path fill-rule="evenodd" clip-rule="evenodd" d="M352 46.8516C372 46.8516 374 40.8516 375.5 30.8516V46.8516H352Z" fill="white"/>
<path fill-rule="evenodd" clip-rule="evenodd" d="M684.5 46.8516C664.5 46.8516 662.5 40.8516 661 30.8516V46.8516H684.5Z" fill="white"/>
<path fill-rule="evenodd" clip-rule="evenodd" d="M684.143 26.6356H679.857V30.922C679.857 31.3935 679.471 31.7792 679 31.7792C678.528 31.7792 678.142 31.3935 678.142 30.922V26.6356H673.856C673.385 26.6356 672.999 26.2498 672.999 25.7783C672.999 25.3068 673.385 24.921 673.856 24.921H678.142V20.6346C678.142 20.1631 678.528 19.7773 679 19.7773C679.471 19.7773 679.857 20.1631 679.857 20.6346V24.921H684.143C684.614 24.921 685 25.3068 685 25.7783C685 26.2498 684.614 26.6356 684.143 26.6356Z" fill="#1F1F1F"/>
<mask id="path-24-inside-1_2550_271563" fill="white">
<path d="M1 46H1441V92H1V46Z"/>
</mask>
<path d="M1 46H1441V92H1V46Z" fill="white"/>
<path d="M1441 92V91H1V92V93H1441V92Z" fill="#DEE1E6" mask="url(#path-24-inside-1_2550_271563)"/>
<path fill-rule="evenodd" clip-rule="evenodd" d="M30.7069 68.2007H21.7396L25.6573 64.283C25.9704 63.9699 25.9704 63.4561 25.6573 63.143C25.3442 62.8299 24.8384 62.8299 24.5253 63.143L19.2348 68.4335C18.9217 68.7466 18.9217 69.2524 19.2348 69.5655L24.5253 74.856C24.8384 75.1691 25.3442 75.1691 25.6573 74.856C25.9704 74.5429 25.9704 74.0371 25.6573 73.724L21.7396 69.8063H30.7069C31.1485 69.8063 31.5097 69.4451 31.5097 69.0035C31.5097 68.562 31.1485 68.2007 30.7069 68.2007Z" fill="#1F1F1F"/>
<path opacity="0.6" fill-rule="evenodd" clip-rule="evenodd" d="M52.3126 68.2007H61.28L57.3623 64.283C57.0492 63.9699 57.0492 63.4561 57.3623 63.143C57.6754 62.8299 58.1811 62.8299 58.4942 63.143L63.7847 68.4335C64.0978 68.7466 64.0978 69.2524 63.7847 69.5655L58.4942 74.856C58.1811 75.1691 57.6754 75.1691 57.3623 74.856C57.0492 74.5429 57.0492 74.0371 57.3623 73.724L61.28 69.8063H52.3126C51.8711 69.8063 51.5098 69.4451 51.5098 69.0035C51.5098 68.562 51.8711 68.2007 52.3126 68.2007Z" fill="#1F1F1F"/>
<path fill-rule="evenodd" clip-rule="evenodd" d="M96.2006 67.3063V63.7252C96.2006 63.4205 95.8351 63.2716 95.6253 63.4882L94.4205 64.6932C93.1954 63.4679 91.4492 62.7639 89.5405 62.9331C86.7045 63.1904 84.3693 65.4717 84.058 68.3082C83.6519 71.9773 86.515 75.0913 90.109 75.0913C93.2157 75.0913 95.781 72.7626 96.1533 69.7569C96.2006 69.3507 95.8825 68.9987 95.4764 68.9987C95.138 68.9987 94.8537 69.2491 94.8131 69.5809C94.5221 71.9434 92.4847 73.7712 90.0413 73.7374C87.5302 73.7035 85.4117 71.5847 85.3711 69.0664C85.3305 66.4262 87.4761 64.26 90.109 64.26C91.4153 64.26 92.5998 64.7948 93.4594 65.6477L92.0448 67.0626C91.8282 67.2792 91.9771 67.6448 92.2817 67.6448H95.8622C96.0517 67.6448 96.2006 67.4958 96.2006 67.3063Z" fill="#1F1F1F"/>
<rect x="113.2" y="53" width="1234.27" height="32" rx="16" fill="#EDF2FA"/>
<path fill-rule="evenodd" clip-rule="evenodd" d="M135.7 66.6663H135.117V65.4997C135.117 63.8897 133.81 62.583 132.2 62.583C130.59 62.583 129.283 63.8897 129.283 65.4997V66.6663H128.7C128.058 66.6663 127.533 67.1913 127.533 67.833V73.6663C127.533 74.308 128.058 74.833 128.7 74.833H135.7C136.342 74.833 136.867 74.308 136.867 73.6663V67.833C136.867 67.1913 136.342 66.6663 135.7 66.6663ZM130.45 66.6663V65.4997C130.45 64.5313 131.232 63.7497 132.2 63.7497C133.168 63.7497 133.95 64.5313 133.95 65.4997V66.6663H130.45Z" fill="#1F1F1F"/>
<path d="M151.416 74.1541C150.7 74.1541 150.075 73.9901 149.542 73.6619C149.008 73.3338 148.594 72.8748 148.299 72.2848C148.004 71.6948 147.856 71.0054 147.856 70.2166C147.856 69.4245 148.004 68.7318 148.299 68.1385C148.594 67.5452 149.008 67.0845 149.542 66.7564C150.075 66.4283 150.7 66.2642 151.416 66.2642C152.132 66.2642 152.757 66.4283 153.29 66.7564C153.824 67.0845 154.238 67.5452 154.533 68.1385C154.828 68.7318 154.976 69.4245 154.976 70.2166C154.976 71.0054 154.828 71.6948 154.533 72.2848C154.238 72.8748 153.824 73.3338 153.29 73.6619C152.757 73.9901 152.132 74.1541 151.416 74.1541ZM151.421 72.9062C151.885 72.9062 152.27 72.7836 152.574 72.5384C152.879 72.2931 153.105 71.9666 153.251 71.5589C153.4 71.1513 153.474 70.7022 153.474 70.2116C153.474 69.7244 153.4 69.277 153.251 68.8693C153.105 68.4583 152.879 68.1286 152.574 67.88C152.27 67.6314 151.885 67.5071 151.421 67.5071C150.954 67.5071 150.566 67.6314 150.258 67.88C149.953 68.1286 149.726 68.4583 149.577 68.8693C149.431 69.277 149.358 69.7244 149.358 70.2116C149.358 70.7022 149.431 71.1513 149.577 71.5589C149.726 71.9666 149.953 72.2931 150.258 72.5384C150.566 72.7836 150.954 72.9062 151.421 72.9062ZM158.122 69.4659V74H156.635V63.8182H158.102V67.6065H158.196C158.375 67.1955 158.649 66.8691 159.016 66.6271C159.384 66.3852 159.865 66.2642 160.458 66.2642C160.982 66.2642 161.439 66.3719 161.83 66.5874C162.225 66.8028 162.53 67.1243 162.745 67.5518C162.964 67.9761 163.073 68.5064 163.073 69.1428V74H161.587V69.3217C161.587 68.7616 161.443 68.3274 161.154 68.0192C160.866 67.7076 160.465 67.5518 159.951 67.5518C159.6 67.5518 159.285 67.6264 159.006 67.7756C158.731 67.9247 158.514 68.1435 158.355 68.4318C158.199 68.7169 158.122 69.0616 158.122 69.4659ZM166.543 69.4659V74H165.057V63.8182H166.524V67.6065H166.618C166.797 67.1955 167.07 66.8691 167.438 66.6271C167.806 66.3852 168.287 66.2642 168.88 66.2642C169.404 66.2642 169.861 66.3719 170.252 66.5874C170.647 66.8028 170.952 67.1243 171.167 67.5518C171.386 67.9761 171.495 68.5064 171.495 69.1428V74H170.009V69.3217C170.009 68.7616 169.864 68.3274 169.576 68.0192C169.288 67.7076 168.887 67.5518 168.373 67.5518C168.022 67.5518 167.707 67.6264 167.428 67.7756C167.153 67.9247 166.936 68.1435 166.777 68.4318C166.621 68.7169 166.543 69.0616 166.543 69.4659ZM174.145 76.8636C173.923 76.8636 173.721 76.8454 173.538 76.8089C173.356 76.7758 173.22 76.7393 173.131 76.6996L173.489 75.4815C173.761 75.5545 174.002 75.5859 174.215 75.576C174.427 75.5661 174.614 75.4865 174.776 75.3374C174.942 75.1882 175.088 74.9446 175.214 74.6065L175.398 74.0994L172.604 66.3636H174.195L176.129 72.2898H176.208L178.142 66.3636H179.738L176.591 75.0192C176.445 75.4169 176.26 75.7533 176.034 76.0284C175.809 76.3068 175.54 76.5156 175.229 76.6548C174.917 76.794 174.556 76.8636 174.145 76.8636ZM184.166 74.1541C183.414 74.1541 182.766 73.9934 182.223 73.6719C181.682 73.3471 181.265 72.8913 180.97 72.3047C180.678 71.7147 180.532 71.0237 180.532 70.2315C180.532 69.4493 180.678 68.7599 180.97 68.1634C181.265 67.5668 181.676 67.1011 182.203 66.7663C182.733 66.4316 183.353 66.2642 184.062 66.2642C184.493 66.2642 184.911 66.3355 185.315 66.478C185.719 66.6205 186.082 66.8442 186.404 67.1491C186.725 67.4541 186.979 67.8501 187.164 68.3374C187.35 68.8213 187.443 69.4096 187.443 70.1023V70.6293H181.372V69.5156H185.986C185.986 69.1245 185.907 68.7782 185.747 68.4766C185.588 68.1716 185.365 67.9313 185.076 67.7557C184.791 67.58 184.456 67.4922 184.072 67.4922C183.654 67.4922 183.29 67.5949 182.978 67.8004C182.67 68.0026 182.431 68.2678 182.262 68.5959C182.097 68.9207 182.014 69.2737 182.014 69.6548V70.5249C182.014 71.0353 182.103 71.4695 182.282 71.8274C182.465 72.1854 182.718 72.4588 183.043 72.6477C183.368 72.8333 183.747 72.9261 184.181 72.9261C184.463 72.9261 184.72 72.8864 184.952 72.8068C185.184 72.724 185.384 72.6013 185.554 72.4389C185.723 72.2765 185.852 72.076 185.941 71.8374L187.348 72.0909C187.236 72.5052 187.033 72.8681 186.742 73.1797C186.453 73.4879 186.09 73.7282 185.653 73.9006C185.219 74.0696 184.723 74.1541 184.166 74.1541ZM189.092 66.3636H190.579V74.4972C190.579 75.0076 190.486 75.4384 190.3 75.7898C190.118 76.1411 189.846 76.4079 189.485 76.5902C189.127 76.7725 188.684 76.8636 188.157 76.8636C188.104 76.8636 188.055 76.8636 188.008 76.8636C187.959 76.8636 187.907 76.862 187.854 76.8587V75.581C187.901 75.581 187.942 75.581 187.978 75.581C188.012 75.581 188.05 75.581 188.093 75.581C188.444 75.581 188.698 75.4865 188.853 75.2976C189.013 75.112 189.092 74.8419 189.092 74.4872V66.3636ZM189.828 65.1854C189.569 65.1854 189.347 65.0992 189.162 64.9268C188.979 64.7512 188.888 64.5424 188.888 64.3004C188.888 64.0552 188.979 63.8464 189.162 63.674C189.347 63.4983 189.569 63.4105 189.828 63.4105C190.086 63.4105 190.307 63.4983 190.489 63.674C190.675 63.8464 190.767 64.0552 190.767 64.3004C190.767 64.5424 190.675 64.7512 190.489 64.9268C190.307 65.0992 190.086 65.1854 189.828 65.1854ZM192.578 74V66.3636H194.065V74H192.578ZM193.329 65.1854C193.071 65.1854 192.849 65.0992 192.663 64.9268C192.481 64.7512 192.389 64.5424 192.389 64.3004C192.389 64.0552 192.481 63.8464 192.663 63.674C192.849 63.4983 193.071 63.4105 193.329 63.4105C193.588 63.4105 193.808 63.4983 193.99 63.674C194.176 63.8464 194.269 64.0552 194.269 64.3004C194.269 64.5424 194.176 64.7512 193.99 64.9268C193.808 65.0992 193.588 65.1854 193.329 65.1854ZM197.551 69.4659V74H196.065V66.3636H197.492V67.6065H197.586C197.762 67.2022 198.037 66.8774 198.411 66.6321C198.789 66.3868 199.265 66.2642 199.838 66.2642C200.359 66.2642 200.814 66.3736 201.205 66.5923C201.596 66.8078 201.9 67.1293 202.115 67.5568C202.331 67.9844 202.438 68.513 202.438 69.1428V74H200.952V69.3217C200.952 68.7682 200.808 68.3357 200.519 68.0241C200.231 67.7093 199.835 67.5518 199.331 67.5518C198.986 67.5518 198.68 67.6264 198.411 67.7756C198.146 67.9247 197.936 68.1435 197.78 68.4318C197.627 68.7169 197.551 69.0616 197.551 69.4659ZM205.411 74.0945C205.14 74.0945 204.906 73.9983 204.71 73.8061C204.515 73.6106 204.417 73.3752 204.417 73.1001C204.417 72.8284 204.515 72.5964 204.71 72.4041C204.906 72.2086 205.14 72.1108 205.411 72.1108C205.683 72.1108 205.917 72.2086 206.112 72.4041C206.308 72.5964 206.406 72.8284 206.406 73.1001C206.406 73.2824 206.359 73.4498 206.266 73.6023C206.177 73.7514 206.058 73.8707 205.908 73.9602C205.759 74.0497 205.594 74.0945 205.411 74.0945ZM211.613 74.1541C210.874 74.1541 210.238 73.9867 209.704 73.652C209.174 73.3139 208.766 72.8482 208.481 72.255C208.196 71.6617 208.054 70.9822 208.054 70.2166C208.054 69.4411 208.2 68.7566 208.491 68.1634C208.783 67.5668 209.194 67.1011 209.724 66.7663C210.254 66.4316 210.879 66.2642 211.598 66.2642C212.178 66.2642 212.696 66.3719 213.15 66.5874C213.604 66.7995 213.97 67.0978 214.248 67.4822C214.53 67.8667 214.697 68.3158 214.75 68.8295H213.304C213.224 68.4716 213.042 68.1634 212.757 67.9048C212.475 67.6463 212.097 67.517 211.623 67.517C211.209 67.517 210.846 67.6264 210.535 67.8452C210.226 68.0606 209.986 68.3688 209.814 68.7699C209.641 69.1676 209.555 69.6383 209.555 70.1818C209.555 70.7386 209.64 71.2192 209.809 71.6236C209.978 72.0279 210.216 72.3411 210.525 72.5632C210.836 72.7853 211.202 72.8963 211.623 72.8963C211.905 72.8963 212.16 72.8449 212.389 72.7422C212.621 72.6361 212.815 72.4853 212.971 72.2898C213.13 72.0942 213.241 71.8589 213.304 71.5838H214.75C214.697 72.0777 214.537 72.5185 214.268 72.9062C214 73.294 213.64 73.599 213.189 73.821C212.742 74.0431 212.217 74.1541 211.613 74.1541ZM219.557 74.1541C218.841 74.1541 218.216 73.9901 217.682 73.6619C217.149 73.3338 216.735 72.8748 216.44 72.2848C216.145 71.6948 215.997 71.0054 215.997 70.2166C215.997 69.4245 216.145 68.7318 216.44 68.1385C216.735 67.5452 217.149 67.0845 217.682 66.7564C218.216 66.4283 218.841 66.2642 219.557 66.2642C220.273 66.2642 220.897 66.4283 221.431 66.7564C221.965 67.0845 222.379 67.5452 222.674 68.1385C222.969 68.7318 223.116 69.4245 223.116 70.2166C223.116 71.0054 222.969 71.6948 222.674 72.2848C222.379 72.8748 221.965 73.3338 221.431 73.6619C220.897 73.9901 220.273 74.1541 219.557 74.1541ZM219.562 72.9062C220.026 72.9062 220.41 72.7836 220.715 72.5384C221.02 72.2931 221.245 71.9666 221.391 71.5589C221.54 71.1513 221.615 70.7022 221.615 70.2116C221.615 69.7244 221.54 69.277 221.391 68.8693C221.245 68.4583 221.02 68.1286 220.715 67.88C220.41 67.6314 220.026 67.5071 219.562 67.5071C219.094 67.5071 218.707 67.6314 218.398 67.88C218.093 68.1286 217.866 68.4583 217.717 68.8693C217.571 69.277 217.498 69.7244 217.498 70.2116C217.498 70.7022 217.571 71.1513 217.717 71.5589C217.866 71.9666 218.093 72.2931 218.398 72.5384C218.707 72.7836 219.094 72.9062 219.562 72.9062ZM224.776 74V66.3636H226.203V67.6065H226.297C226.456 67.1856 226.716 66.8575 227.078 66.6222C227.439 66.3835 227.871 66.2642 228.375 66.2642C228.886 66.2642 229.313 66.3835 229.658 66.6222C230.006 66.8608 230.263 67.1889 230.428 67.6065H230.508C230.69 67.1989 230.98 66.8741 231.378 66.6321C231.776 66.3868 232.25 66.2642 232.8 66.2642C233.493 66.2642 234.058 66.4813 234.495 66.9155C234.936 67.3497 235.156 68.0043 235.156 68.8793V74H233.67V69.0185C233.67 68.5014 233.529 68.1269 233.247 67.8949C232.966 67.6629 232.629 67.5469 232.238 67.5469C231.754 67.5469 231.378 67.696 231.109 67.9943C230.841 68.2893 230.707 68.6688 230.707 69.1328V74H229.225V68.924C229.225 68.5097 229.096 68.1766 228.837 67.9247C228.579 67.6728 228.243 67.5469 227.828 67.5469C227.546 67.5469 227.286 67.6214 227.048 67.7706C226.812 67.9164 226.622 68.1203 226.476 68.3821C226.333 68.6439 226.262 68.9472 226.262 69.2919V74H224.776Z" fill="#1F1F1F"/>
<a href="https://brixagency.com">
<rect fill="black" fill-opacity="0" x="56.2324" y="-0.471591" width="32.7131" height="16.9432"/>
</a>
<path fill-rule="evenodd" clip-rule="evenodd" d="M1336.32 66.6857L1332.17 66.3264L1330.56 62.5197C1330.27 61.8268 1329.27 61.8268 1328.98 62.5197L1327.37 66.335L1323.24 66.6857C1322.48 66.7456 1322.17 67.6865 1322.75 68.1827L1325.89 70.903L1324.95 74.9407C1324.78 75.6764 1325.57 76.2581 1326.22 75.8646L1329.77 73.726L1333.32 75.8731C1333.97 76.2666 1334.77 75.6849 1334.6 74.9492L1333.65 70.903L1336.79 68.1827C1337.37 67.6865 1337.07 66.7456 1336.32 66.6857V66.6857ZM1329.77 72.1259L1326.55 74.0678L1327.41 70.4065L1324.57 67.9428L1328.32 67.6177L1329.77 64.1703L1331.23 67.6263L1334.98 67.9514L1332.14 70.415L1333 74.0763L1329.77 72.1259Z" fill="#1F1F1F"/>
<rect x="1364.47" y="56.5" width="25" height="25" rx="12.5" fill="#EBEFF6"/>
<path d="M1414.42 73.8096C1415.32 73.8096 1416.06 74.5493 1416.06 75.4531C1416.06 76.3569 1415.32 77.0966 1414.42 77.0967C1413.51 77.0967 1412.77 76.357 1412.77 75.4531C1412.77 74.5492 1413.51 73.8096 1414.42 73.8096ZM1414.42 67.5225C1415.32 67.5225 1416.06 68.2622 1416.06 69.166C1416.06 70.0698 1415.32 70.8095 1414.42 70.8096C1413.51 70.8096 1412.77 70.0699 1412.77 69.166C1412.77 68.2621 1413.51 67.5225 1414.42 67.5225ZM1414.42 61.2354C1415.32 61.2354 1416.06 61.9751 1416.06 62.8789C1416.06 63.7827 1415.32 64.5224 1414.42 64.5225C1413.51 64.5225 1412.77 63.7827 1412.77 62.8789C1412.77 61.975 1413.51 61.2354 1414.42 61.2354Z" fill="#1F1F1F"/>
<g opacity="0.8">
<rect x="1406.5" y="8.14844" width="28" height="28" rx="8" fill="#ECF3FE"/>
<path d="M1423.98 20.2236C1424.21 19.9898 1424.59 19.9898 1424.82 20.2236C1425.06 20.4575 1425.06 20.8365 1424.82 21.0703L1420.88 25.0166C1420.87 25.0181 1420.87 25.0209 1420.87 25.0225C1420.64 25.256 1420.26 25.2552 1420.03 25.0215L1416.07 21.0703C1415.84 20.8365 1415.84 20.4575 1416.07 20.2236C1416.31 19.99 1416.69 19.9898 1416.92 20.2236L1420.45 23.752L1423.98 20.2236Z" fill="#1F1F1F"/>
</g>
<rect x="1.5" y="92.5" width="1439" height="39" fill="#EEF2FA"/>
<rect x="1.5" y="92.5" width="1439" height="39" stroke="#D6E3FB"/>
</g>
<rect x="0.5" y="0.5" width="1441" height="871" rx="12.5" stroke="black" stroke-opacity="0.2"/>
<defs>
<linearGradient id="paint0_linear_2550_271563" x1="356.519" y1="24.0566" x2="322.5" y2="23.9587" gradientUnits="userSpaceOnUse">
<stop offset="0.452265" stop-color="#D3E3FD"/>
<stop offset="1" stop-color="#D3E3FD" stop-opacity="0"/>
</linearGradient>
<linearGradient id="paint1_linear_2550_271563" x1="641.019" y1="25.5" x2="607" y2="25.4021" gradientUnits="userSpaceOnUse">
<stop offset="0.452265" stop-color="white"/>
<stop offset="1" stop-color="white" stop-opacity="0"/>
</linearGradient>
<clipPath id="clip0_2550_271563">
<rect x="1" y="1" width="1440" height="870" rx="12" fill="white"/>
</clipPath>
<clipPath id="clip1_2550_271563">
<path d="M91 18.0566C91 11.4292 96.3726 6.05664 103 6.05664H364.5C371.127 6.05664 376.5 11.4292 376.5 18.0566V46.4996H91V18.0566Z" fill="white"/>
</clipPath>
<clipPath id="clip2_2550_271563">
<path d="M375.5 20.5C375.5 13.8726 380.873 8.5 387.5 8.5H649C655.627 8.5 661 13.8726 661 20.5V46.5H375.5V20.5Z" fill="white"/>
</clipPath>
</defs>
</svg>
