<svg width="60" height="59" viewBox="0 0 60 59" fill="none" xmlns="http://www.w3.org/2000/svg">
<g clip-path="url(#clip0_2014_313)">
<path d="M50.0391 0H9.96094C4.45966 0 0 4.49058 0 10.03V48.8756C0 54.415 4.45966 58.9056 9.96094 58.9056H50.0391C55.5403 58.9056 60 54.415 60 48.8756V10.03C60 4.49058 55.5403 0 50.0391 0Z" fill="#330000"/>
<path d="M29.0753 35.3504H19.7777L17.8858 41.2677C17.86 41.3756 17.7977 41.4711 17.7095 41.5377C17.6213 41.6043 17.5128 41.6378 17.4027 41.6325H12.6934C12.425 41.6325 12.3311 41.4838 12.4117 41.1865L20.4618 17.8418C20.5423 17.5988 20.6227 17.3219 20.7032 17.0111C20.8087 16.4702 20.8626 15.9208 20.8642 15.3697C20.8587 15.3312 20.8623 15.2919 20.8745 15.2549C20.8867 15.218 20.9073 15.1844 20.9346 15.1569C20.9619 15.1293 20.9953 15.1086 21.0319 15.0962C21.0686 15.0839 21.1077 15.0803 21.1459 15.0858H27.5458C27.7333 15.0858 27.8406 15.1535 27.8678 15.2888L37.0045 41.2271C37.0849 41.4977 37.0045 41.6328 36.7631 41.6325H31.5304C31.4406 41.6424 31.3502 41.6191 31.2762 41.5669C31.2022 41.5147 31.1495 41.4372 31.128 41.3489L29.0753 35.3504ZM21.2266 30.2439H27.5861L27.4954 29.9425L27.3498 29.4653L27.246 29.1302L27.0803 28.6025L26.7281 27.4916L26.4182 26.5068L25.6136 23.9415C25.4133 23.3038 25.2211 22.6636 25.037 22.0209L24.8898 21.4994L24.7178 20.8827L24.4553 19.9269L24.4061 19.7468H24.366C24.1646 20.7196 23.9193 21.6827 23.631 22.6331L23.0338 24.5674L22.7052 25.636L22.3736 26.7178C22.3138 26.9132 22.254 27.1064 22.1943 27.2974L22.0162 27.8633L21.839 28.4161L21.6627 28.9551L21.4874 29.4807C21.4293 29.6537 21.3713 29.8244 21.3133 29.9928L21.2266 30.2439ZM42.4377 19.382C42.0272 19.3985 41.6179 19.3276 41.2364 19.174C40.855 19.0204 40.51 18.7874 40.2241 18.4904C39.9391 18.1803 39.7177 17.8166 39.5726 17.4201C39.4276 17.0237 39.3616 16.6023 39.3787 16.1802C39.3641 15.7622 39.4372 15.3459 39.5932 14.9584C39.7493 14.5708 39.9848 14.2208 40.2843 13.9311C40.862 13.3726 41.6315 13.0601 42.4323 13.0586L42.5181 13.0595C43.4842 13.0595 44.2423 13.35 44.7925 13.9308C45.0701 14.2328 45.2859 14.5868 45.4274 14.9728C45.569 15.3588 45.6336 15.769 45.6175 16.1802C45.6345 16.604 45.5667 17.027 45.4181 17.4239C45.2694 17.8209 45.0429 18.1836 44.7522 18.4906C44.4588 18.7818 44.1104 19.0109 43.7277 19.1645C43.345 19.3182 42.9357 19.3931 42.5238 19.385L42.4377 19.382ZM39.6604 41.2271V21.8543C39.6602 21.6111 39.7676 21.4895 39.9824 21.4895H44.9334C45.1479 21.4895 45.2552 21.6111 45.2554 21.8543V41.2271C45.2554 41.4977 45.148 41.6328 44.9334 41.6325H40.0227C39.794 41.6325 39.6736 41.5112 39.6616 41.2686L39.6604 41.2271Z" fill="#FF9A00"/>
</g>
<defs>
<clipPath id="clip0_2014_313">
<rect width="60" height="59" fill="white"/>
</clipPath>
</defs>
</svg>
