<svg width="57" height="31" viewBox="0 0 57 31" fill="none" xmlns="http://www.w3.org/2000/svg">
<path d="M5.42969 5.40201C5.41171 5.39224 4.78046 5.88795 3.59226 8.39129C2.86165 9.93056 2.96015 12.5263 4.72231 13.2348C5.99156 13.7452 8.12764 12.9535 8.71106 11.6432C9.63297 9.57263 9.10055 7.65353 7.54223 6.01503C6.64442 5.07104 4.97586 4.51221 4.60922 4.39136" stroke="white" stroke-width="1.5" stroke-linecap="round"/>
<path d="M6.33568 16.3921C6.91014 18.1675 7.08301 20.8928 6.58301 23.8928C6.3291 25.4163 5.75349 26.1261 4.61639 27.0068C3.494 27.8761 2.08383 28.3923 1.16019 28.1339C0.23656 27.8756 1.16139 27.5739 1.16139 27.5739C3.71234 26.541 5.86149 26.2675 8.89997 26.5277C10.7671 26.6876 12.5797 27.2617 13.583 27.5739" stroke="white" stroke-width="1.5" stroke-linecap="round"/>
<path d="M17.084 3.39136C17.1791 3.58481 17.2743 3.77825 17.4778 4.06734C17.6813 4.35644 17.9902 4.73531 18.4069 5.13932C18.8237 5.54334 19.3389 5.96102 20.084 6.39136" stroke="white" stroke-width="1.5" stroke-linecap="round"/>
<path d="M15.0605 10.6945C18.2122 10.2345 20.6075 9.40865 21.1512 9.17507C21.7355 8.92403 19.6527 11.8832 18.2057 14.9902C16.7718 18.0692 18.1713 21.0625 21.1512 17.8914C21.826 17.1732 21.9061 15.2309 21.8768 14.6944C21.8474 14.158 21.6772 13.8072 21.4723 13.5834C21.2674 13.3596 21.0331 13.2733 20.6205 12.8026" stroke="white" stroke-width="1.5" stroke-linecap="round"/>
<path d="M24.0742 11.1448C24.9127 10.6262 25.7511 10.1076 26.3403 9.75633C26.9295 9.40509 27.2441 9.23695 27.5682 9.06372" stroke="white" stroke-width="1.5" stroke-linecap="round"/>
<path d="M25.3779 15.2736C25.6526 15.1821 26.4163 14.7014 27.701 13.6364C29.2232 12.3745 30.0489 10.7193 30.5335 9.12226C31.1936 6.94719 31.0041 4.92526 31.2267 4.10737C31.2857 3.89073 31.3406 4.1128 31.2184 7.47435C31.0962 10.8359 30.8222 17.3394 30.7365 21.339C30.6507 25.3387 30.7615 26.6375 30.8761 27.4837C30.9906 28.33 31.1055 28.6844 31.2239 29.0496" stroke="white" stroke-width="1.5" stroke-linecap="round"/>
<path d="M35.9253 4.6626C35.9253 5.40407 35.9253 6.14554 35.9005 8.50522C35.8756 10.8649 35.8258 14.8203 35.9485 18.4481C36.0711 22.076 36.3676 25.2564 36.6732 28.5332" stroke="white" stroke-width="1.5" stroke-linecap="round"/>
<path d="M41.6397 6.87705C42.7662 6.79018 44.3093 6.56271 45.786 6.39396C46.3629 6.32803 44.59 9.14752 41.9025 12.5371C41.018 13.6528 41.0224 13.434 41.1356 13.2172C41.7304 12.0782 43.3824 11.5841 44.5004 11.3266C45.7685 11.7647 47.272 12.6744 47.5955 12.7625C47.7583 12.7986 47.9182 12.817 48.083 12.836" stroke="white" stroke-width="1.5" stroke-linecap="round"/>
<path d="M54.0164 0.750077C54.0102 0.750952 54.004 0.751828 53.8016 3.70761C53.5992 6.66339 53.2007 12.574 53.0312 15.8981C52.8616 19.2222 52.933 19.7807 53.0066 20.356" stroke="white" stroke-width="1.5" stroke-linecap="round"/>
<path d="M48.0801 20.3916C48.0936 23.3589 48.2342 25.5729 48.5234 26.8215C48.7559 27.8255 49.5104 28.5664 50.5819 29.1059C51.1735 29.3171 51.8624 29.4012 52.4661 29.3907C53.0698 29.3803 53.5674 29.2727 54.0801 29.1619" stroke="white" stroke-width="1.5" stroke-linecap="round"/>
</svg>
